<mxfile host="app.diagrams.net" modified="2022-10-30T20:29:28.874Z" agent="5.0 (Windows NT 10.0; Win64; x64) AppleWebKit/537.36 (KHTML, like Gecko) Chrome/106.0.0.0 Safari/537.36" etag="dA6COAu7drEkAQYJqK-V" version="20.5.1" type="github">
  <diagram id="it1Z7c8Y9GFUxKlOiuhM" name="Page-1">
    <mxGraphModel dx="2711" dy="1744" grid="1" gridSize="10" guides="1" tooltips="1" connect="1" arrows="1" fold="1" page="1" pageScale="1" pageWidth="827" pageHeight="1169" math="0" shadow="0">
      <root>
        <mxCell id="0" />
        <mxCell id="1" parent="0" />
        <mxCell id="rfrBUhaxzowPUc6iKHgh-1" value="Admin" style="swimlane;fontStyle=1;align=center;verticalAlign=top;childLayout=stackLayout;horizontal=1;startSize=26;horizontalStack=0;resizeParent=1;resizeParentMax=0;resizeLast=0;collapsible=1;marginBottom=0;" vertex="1" parent="1">
          <mxGeometry x="440" y="10" width="160" height="104" as="geometry" />
        </mxCell>
        <mxCell id="rfrBUhaxzowPUc6iKHgh-2" value="- adminID: int&#xa;- name: string" style="text;strokeColor=none;fillColor=none;align=left;verticalAlign=top;spacingLeft=4;spacingRight=4;overflow=hidden;rotatable=0;points=[[0,0.5],[1,0.5]];portConstraint=eastwest;" vertex="1" parent="rfrBUhaxzowPUc6iKHgh-1">
          <mxGeometry y="26" width="160" height="44" as="geometry" />
        </mxCell>
        <mxCell id="rfrBUhaxzowPUc6iKHgh-3" value="" style="line;strokeWidth=1;fillColor=none;align=left;verticalAlign=middle;spacingTop=-1;spacingLeft=3;spacingRight=3;rotatable=0;labelPosition=right;points=[];portConstraint=eastwest;strokeColor=inherit;" vertex="1" parent="rfrBUhaxzowPUc6iKHgh-1">
          <mxGeometry y="70" width="160" height="8" as="geometry" />
        </mxCell>
        <mxCell id="rfrBUhaxzowPUc6iKHgh-4" value="+ method(type): type" style="text;strokeColor=none;fillColor=none;align=left;verticalAlign=top;spacingLeft=4;spacingRight=4;overflow=hidden;rotatable=0;points=[[0,0.5],[1,0.5]];portConstraint=eastwest;" vertex="1" parent="rfrBUhaxzowPUc6iKHgh-1">
          <mxGeometry y="78" width="160" height="26" as="geometry" />
        </mxCell>
        <mxCell id="rfrBUhaxzowPUc6iKHgh-5" style="edgeStyle=orthogonalEdgeStyle;rounded=0;orthogonalLoop=1;jettySize=auto;html=1;endArrow=block;endFill=0;exitX=0.999;exitY=0.053;exitDx=0;exitDy=0;exitPerimeter=0;entryX=0.005;entryY=0.479;entryDx=0;entryDy=0;entryPerimeter=0;" edge="1" parent="1" source="rfrBUhaxzowPUc6iKHgh-8" target="rfrBUhaxzowPUc6iKHgh-20">
          <mxGeometry relative="1" as="geometry">
            <mxPoint x="1580" y="300" as="targetPoint" />
            <Array as="points">
              <mxPoint x="1570" y="342" />
            </Array>
            <mxPoint x="1620" y="410" as="sourcePoint" />
          </mxGeometry>
        </mxCell>
        <mxCell id="rfrBUhaxzowPUc6iKHgh-6" value="Extends" style="edgeLabel;html=1;align=center;verticalAlign=middle;resizable=0;points=[];" vertex="1" connectable="0" parent="rfrBUhaxzowPUc6iKHgh-5">
          <mxGeometry x="-0.164" y="-3" relative="1" as="geometry">
            <mxPoint x="-5" y="-1" as="offset" />
          </mxGeometry>
        </mxCell>
        <mxCell id="rfrBUhaxzowPUc6iKHgh-7" value="Collectors" style="swimlane;fontStyle=1;align=center;verticalAlign=top;childLayout=stackLayout;horizontal=1;startSize=26;horizontalStack=0;resizeParent=1;resizeParentMax=0;resizeLast=0;collapsible=1;marginBottom=0;" vertex="1" parent="1">
          <mxGeometry x="1351" y="313.5" width="203" height="164" as="geometry" />
        </mxCell>
        <mxCell id="rfrBUhaxzowPUc6iKHgh-8" value="- route: Route&#xa;- vehicle: Vehicle" style="text;strokeColor=none;fillColor=none;align=left;verticalAlign=top;spacingLeft=4;spacingRight=4;overflow=hidden;rotatable=0;points=[[0,0.5],[1,0.5]];portConstraint=eastwest;" vertex="1" parent="rfrBUhaxzowPUc6iKHgh-7">
          <mxGeometry y="26" width="203" height="44" as="geometry" />
        </mxCell>
        <mxCell id="rfrBUhaxzowPUc6iKHgh-9" value="" style="line;strokeWidth=1;fillColor=none;align=left;verticalAlign=middle;spacingTop=-1;spacingLeft=3;spacingRight=3;rotatable=0;labelPosition=right;points=[];portConstraint=eastwest;strokeColor=inherit;" vertex="1" parent="rfrBUhaxzowPUc6iKHgh-7">
          <mxGeometry y="70" width="203" height="8" as="geometry" />
        </mxCell>
        <mxCell id="rfrBUhaxzowPUc6iKHgh-10" value="+ getRoute(): route&#xa;+ getVehicle(): Vehicle&#xa;+ setRoute(route: Route):void&#xa;+ setVehicle(vehicle: Vehicle):void" style="text;strokeColor=none;fillColor=none;align=left;verticalAlign=top;spacingLeft=4;spacingRight=4;overflow=hidden;rotatable=0;points=[[0,0.5],[1,0.5]];portConstraint=eastwest;" vertex="1" parent="rfrBUhaxzowPUc6iKHgh-7">
          <mxGeometry y="78" width="203" height="86" as="geometry" />
        </mxCell>
        <mxCell id="rfrBUhaxzowPUc6iKHgh-11" style="edgeStyle=orthogonalEdgeStyle;rounded=0;orthogonalLoop=1;jettySize=auto;html=1;exitX=1.002;exitY=0.192;exitDx=0;exitDy=0;endArrow=block;endFill=0;exitPerimeter=0;entryX=-0.001;entryY=0.067;entryDx=0;entryDy=0;entryPerimeter=0;" edge="1" parent="1" source="rfrBUhaxzowPUc6iKHgh-14" target="rfrBUhaxzowPUc6iKHgh-17">
          <mxGeometry relative="1" as="geometry">
            <mxPoint x="1710" y="178" as="targetPoint" />
          </mxGeometry>
        </mxCell>
        <mxCell id="rfrBUhaxzowPUc6iKHgh-12" value="Extends" style="edgeLabel;html=1;align=center;verticalAlign=middle;resizable=0;points=[];" vertex="1" connectable="0" parent="rfrBUhaxzowPUc6iKHgh-11">
          <mxGeometry x="0.1579" y="-2" relative="1" as="geometry">
            <mxPoint y="-10" as="offset" />
          </mxGeometry>
        </mxCell>
        <mxCell id="rfrBUhaxzowPUc6iKHgh-13" value="Janitors" style="swimlane;fontStyle=1;align=center;verticalAlign=top;childLayout=stackLayout;horizontal=1;startSize=26;horizontalStack=0;resizeParent=1;resizeParentMax=0;resizeLast=0;collapsible=1;marginBottom=0;" vertex="1" parent="1">
          <mxGeometry x="1340" y="139" width="214" height="94" as="geometry" />
        </mxCell>
        <mxCell id="rfrBUhaxzowPUc6iKHgh-14" value="- areaWork: Map" style="text;strokeColor=none;fillColor=none;align=left;verticalAlign=top;spacingLeft=4;spacingRight=4;overflow=hidden;rotatable=0;points=[[0,0.5],[1,0.5]];portConstraint=eastwest;" vertex="1" parent="rfrBUhaxzowPUc6iKHgh-13">
          <mxGeometry y="26" width="214" height="34" as="geometry" />
        </mxCell>
        <mxCell id="rfrBUhaxzowPUc6iKHgh-15" value="" style="line;strokeWidth=1;fillColor=none;align=left;verticalAlign=middle;spacingTop=-1;spacingLeft=3;spacingRight=3;rotatable=0;labelPosition=right;points=[];portConstraint=eastwest;strokeColor=inherit;" vertex="1" parent="rfrBUhaxzowPUc6iKHgh-13">
          <mxGeometry y="60" width="214" height="8" as="geometry" />
        </mxCell>
        <mxCell id="rfrBUhaxzowPUc6iKHgh-16" value="+ getAreaWork(): areaWork" style="text;strokeColor=none;fillColor=none;align=left;verticalAlign=top;spacingLeft=4;spacingRight=4;overflow=hidden;rotatable=0;points=[[0,0.5],[1,0.5]];portConstraint=eastwest;" vertex="1" parent="rfrBUhaxzowPUc6iKHgh-13">
          <mxGeometry y="68" width="214" height="26" as="geometry" />
        </mxCell>
        <mxCell id="rfrBUhaxzowPUc6iKHgh-17" value="Worker" style="swimlane;fontStyle=1;align=center;verticalAlign=top;childLayout=stackLayout;horizontal=1;startSize=26;horizontalStack=0;resizeParent=1;resizeParentMax=0;resizeLast=0;collapsible=1;marginBottom=0;" vertex="1" parent="1">
          <mxGeometry x="1630" y="180" width="240" height="230" as="geometry" />
        </mxCell>
        <mxCell id="rfrBUhaxzowPUc6iKHgh-18" value="- workerID: int&#xa;- name: string&#xa;- type: string&#xa;- timeTable: TimeTable" style="text;strokeColor=none;fillColor=none;align=left;verticalAlign=top;spacingLeft=4;spacingRight=4;overflow=hidden;rotatable=0;points=[[0,0.5],[1,0.5]];portConstraint=eastwest;" vertex="1" parent="rfrBUhaxzowPUc6iKHgh-17">
          <mxGeometry y="26" width="240" height="64" as="geometry" />
        </mxCell>
        <mxCell id="rfrBUhaxzowPUc6iKHgh-19" value="" style="line;strokeWidth=1;fillColor=none;align=left;verticalAlign=middle;spacingTop=-1;spacingLeft=3;spacingRight=3;rotatable=0;labelPosition=right;points=[];portConstraint=eastwest;strokeColor=inherit;" vertex="1" parent="rfrBUhaxzowPUc6iKHgh-17">
          <mxGeometry y="90" width="240" height="8" as="geometry" />
        </mxCell>
        <mxCell id="rfrBUhaxzowPUc6iKHgh-20" value="+ getName(): string&#xa;+ getTimeTable(): TimeTable&#xa;+ getType(): string&#xa;+ getWorkerID(): int&#xa;+ setName(name: string): void&#xa;+ setTimeTable(timeTable: TimeTable): void&#xa;+ setType(type: string): void&#xa;+ setWorkerID(workerID: int): void" style="text;strokeColor=none;fillColor=none;align=left;verticalAlign=top;spacingLeft=4;spacingRight=4;overflow=hidden;rotatable=0;points=[[0,0.5],[1,0.5]];portConstraint=eastwest;" vertex="1" parent="rfrBUhaxzowPUc6iKHgh-17">
          <mxGeometry y="98" width="240" height="132" as="geometry" />
        </mxCell>
        <mxCell id="rfrBUhaxzowPUc6iKHgh-27" value="AdminManageView" style="swimlane;fontStyle=1;align=center;verticalAlign=top;childLayout=stackLayout;horizontal=1;startSize=26;horizontalStack=0;resizeParent=1;resizeParentMax=0;resizeLast=0;collapsible=1;marginBottom=0;" vertex="1" parent="1">
          <mxGeometry x="358" y="139" width="300" height="277" as="geometry">
            <mxRectangle x="290" y="150" width="150" height="30" as="alternateBounds" />
          </mxGeometry>
        </mxCell>
        <mxCell id="rfrBUhaxzowPUc6iKHgh-28" value="- admin: Admin&#xa;- worker: vector&lt;Worker&gt;&#xa;- adminManageController: AdminManageController&#xa;- adminManageModel: AdminManageModel&#xa;Â " style="text;strokeColor=none;fillColor=none;align=left;verticalAlign=top;spacingLeft=4;spacingRight=4;overflow=hidden;rotatable=0;points=[[0,0.5],[1,0.5]];portConstraint=eastwest;" vertex="1" parent="rfrBUhaxzowPUc6iKHgh-27">
          <mxGeometry y="26" width="300" height="84" as="geometry" />
        </mxCell>
        <mxCell id="rfrBUhaxzowPUc6iKHgh-29" value="" style="line;strokeWidth=1;fillColor=none;align=left;verticalAlign=middle;spacingTop=-1;spacingLeft=3;spacingRight=3;rotatable=0;labelPosition=right;points=[];portConstraint=eastwest;strokeColor=inherit;" vertex="1" parent="rfrBUhaxzowPUc6iKHgh-27">
          <mxGeometry y="110" width="300" height="8" as="geometry" />
        </mxCell>
        <mxCell id="rfrBUhaxzowPUc6iKHgh-30" value="+ showWorkerList(): vector&lt;Worker&gt;&#xa;+ showInfoWorkerDetail(worker: Worker): void&#xa;+ filterWorker(type: int): void&#xa;+ showSelectWorker(): vector&lt;Worker&gt;&#xa;+ requestSelectedWorker(): vector&lt;Worker&gt;&#xa;+ requestCreateRoute(): Map&#xa;+ showVehicleList(): vector&lt;Vehicle&gt;&#xa;+ requestAssignRouteForCollector(): Bool&#xa;+ requestAssignAreaForJanitor(): Bool&#xa;+ requestSubmitAssign(): Bool" style="text;strokeColor=none;fillColor=none;align=left;verticalAlign=top;spacingLeft=4;spacingRight=4;overflow=hidden;rotatable=0;points=[[0,0.5],[1,0.5]];portConstraint=eastwest;" vertex="1" parent="rfrBUhaxzowPUc6iKHgh-27">
          <mxGeometry y="118" width="300" height="159" as="geometry" />
        </mxCell>
        <mxCell id="rfrBUhaxzowPUc6iKHgh-31" value="TimeTable" style="swimlane;fontStyle=1;align=center;verticalAlign=top;childLayout=stackLayout;horizontal=1;startSize=26;horizontalStack=0;resizeParent=1;resizeParentMax=0;resizeLast=0;collapsible=1;marginBottom=0;" vertex="1" parent="1">
          <mxGeometry x="1700" y="-80" width="190" height="210" as="geometry" />
        </mxCell>
        <mxCell id="rfrBUhaxzowPUc6iKHgh-32" value="- date: string&#xa;- hour: string&#xa;- week: int" style="text;strokeColor=none;fillColor=none;align=left;verticalAlign=top;spacingLeft=4;spacingRight=4;overflow=hidden;rotatable=0;points=[[0,0.5],[1,0.5]];portConstraint=eastwest;" vertex="1" parent="rfrBUhaxzowPUc6iKHgh-31">
          <mxGeometry y="26" width="190" height="64" as="geometry" />
        </mxCell>
        <mxCell id="rfrBUhaxzowPUc6iKHgh-33" value="" style="line;strokeWidth=1;fillColor=none;align=left;verticalAlign=middle;spacingTop=-1;spacingLeft=3;spacingRight=3;rotatable=0;labelPosition=right;points=[];portConstraint=eastwest;strokeColor=inherit;" vertex="1" parent="rfrBUhaxzowPUc6iKHgh-31">
          <mxGeometry y="90" width="190" height="8" as="geometry" />
        </mxCell>
        <mxCell id="rfrBUhaxzowPUc6iKHgh-34" value="+ getDate(): string&#xa;+ getHour(): string&#xa;+ getWeek(): int&#xa;+ setDate(date: string): void&#xa;+ setHour(hour: string): void&#xa;+ setWeek(week: int): void" style="text;strokeColor=none;fillColor=none;align=left;verticalAlign=top;spacingLeft=4;spacingRight=4;overflow=hidden;rotatable=0;points=[[0,0.5],[1,0.5]];portConstraint=eastwest;" vertex="1" parent="rfrBUhaxzowPUc6iKHgh-31">
          <mxGeometry y="98" width="190" height="112" as="geometry" />
        </mxCell>
        <mxCell id="rfrBUhaxzowPUc6iKHgh-37" value="AdminManageController&#xa;Â " style="swimlane;fontStyle=1;align=center;verticalAlign=top;childLayout=stackLayout;horizontal=1;startSize=26;horizontalStack=0;resizeParent=1;resizeParentMax=0;resizeLast=0;collapsible=1;marginBottom=0;" vertex="1" parent="1">
          <mxGeometry x="220" y="520" width="300" height="296" as="geometry" />
        </mxCell>
        <mxCell id="rfrBUhaxzowPUc6iKHgh-38" value="- adminManageView: AdminManageView&#xa;- detailWorkerController: detailWorkerController&#xa;- adminManageModel: AdminManageModel&#xa;- vehicleController: VehicleController&#xa;- routeController: RouteController&#xa;- workerController: WorkerController&#xa;- mcpsController: MCPsController" style="text;strokeColor=none;fillColor=none;align=left;verticalAlign=top;spacingLeft=4;spacingRight=4;overflow=hidden;rotatable=0;points=[[0,0.5],[1,0.5]];portConstraint=eastwest;fontStyle=0" vertex="1" parent="rfrBUhaxzowPUc6iKHgh-37">
          <mxGeometry y="26" width="300" height="118" as="geometry" />
        </mxCell>
        <mxCell id="rfrBUhaxzowPUc6iKHgh-39" value="" style="line;strokeWidth=1;fillColor=none;align=left;verticalAlign=middle;spacingTop=-1;spacingLeft=3;spacingRight=3;rotatable=0;labelPosition=right;points=[];portConstraint=eastwest;strokeColor=inherit;" vertex="1" parent="rfrBUhaxzowPUc6iKHgh-37">
          <mxGeometry y="144" width="300" height="8" as="geometry" />
        </mxCell>
        <mxCell id="rfrBUhaxzowPUc6iKHgh-40" value="+ GetSelectWorker(): vector&lt;Worker&gt;&#xa;+ UpdateView(): void&#xa;+ checkWorkerType(): bool&#xa;+ requestGetMap(): Map&#xa;+ requestGetVehicleList(): vector&lt;Vehicle&gt;&#xa;+ requestAssignRouteForCollectors(): bool&#xa;+ requestAssignAreaForJanitors(): bool&#xa;+ submitAssign(): bool&#xa;+ updateStatusMCPs(status: int): bool" style="text;strokeColor=none;fillColor=none;align=left;verticalAlign=top;spacingLeft=4;spacingRight=4;overflow=hidden;rotatable=0;points=[[0,0.5],[1,0.5]];portConstraint=eastwest;" vertex="1" parent="rfrBUhaxzowPUc6iKHgh-37">
          <mxGeometry y="152" width="300" height="144" as="geometry" />
        </mxCell>
        <mxCell id="rfrBUhaxzowPUc6iKHgh-53" value="AdminManageModel&#xa;Â " style="swimlane;fontStyle=1;align=center;verticalAlign=top;childLayout=stackLayout;horizontal=1;startSize=26;horizontalStack=0;resizeParent=1;resizeParentMax=0;resizeLast=0;collapsible=1;marginBottom=0;" vertex="1" parent="1">
          <mxGeometry x="-200" y="410" width="360" height="215" as="geometry" />
        </mxCell>
        <mxCell id="rfrBUhaxzowPUc6iKHgh-54" value="- adminManageView: AdminManageView&#xa;- adminManageController: AdminManageController&#xa;- worker: vector&lt;Worker&gt;&#xa;- vehicle: vector&lt;Vehicle&gt;&#xa;- map: Map" style="text;strokeColor=none;fillColor=none;align=left;verticalAlign=top;spacingLeft=4;spacingRight=4;overflow=hidden;rotatable=0;points=[[0,0.5],[1,0.5]];portConstraint=eastwest;fontStyle=0" vertex="1" parent="rfrBUhaxzowPUc6iKHgh-53">
          <mxGeometry y="26" width="360" height="94" as="geometry" />
        </mxCell>
        <mxCell id="rfrBUhaxzowPUc6iKHgh-55" value="" style="line;strokeWidth=1;fillColor=none;align=left;verticalAlign=middle;spacingTop=-1;spacingLeft=3;spacingRight=3;rotatable=0;labelPosition=right;points=[];portConstraint=eastwest;strokeColor=inherit;" vertex="1" parent="rfrBUhaxzowPUc6iKHgh-53">
          <mxGeometry y="120" width="360" height="8" as="geometry" />
        </mxCell>
        <mxCell id="rfrBUhaxzowPUc6iKHgh-56" value="+ getSelectWorker(): vector&lt;Worker&gt;&#xa;+ updateView(): void&#xa;+ getMap(): Map&#xa;+ submitAssign(): bool&#xa;" style="text;strokeColor=none;fillColor=none;align=left;verticalAlign=top;spacingLeft=4;spacingRight=4;overflow=hidden;rotatable=0;points=[[0,0.5],[1,0.5]];portConstraint=eastwest;" vertex="1" parent="rfrBUhaxzowPUc6iKHgh-53">
          <mxGeometry y="128" width="360" height="87" as="geometry" />
        </mxCell>
        <mxCell id="rfrBUhaxzowPUc6iKHgh-58" value="Route" style="swimlane;fontStyle=1;align=center;verticalAlign=top;childLayout=stackLayout;horizontal=1;startSize=26;horizontalStack=0;resizeParent=1;resizeParentMax=0;resizeLast=0;collapsible=1;marginBottom=0;" vertex="1" parent="1">
          <mxGeometry x="-1158.5" y="300" width="252" height="146" as="geometry" />
        </mxCell>
        <mxCell id="rfrBUhaxzowPUc6iKHgh-59" value="- street: vector&lt;string&gt;&#xa;- length: int" style="text;strokeColor=none;fillColor=none;align=left;verticalAlign=top;spacingLeft=4;spacingRight=4;overflow=hidden;rotatable=0;points=[[0,0.5],[1,0.5]];portConstraint=eastwest;" vertex="1" parent="rfrBUhaxzowPUc6iKHgh-58">
          <mxGeometry y="26" width="252" height="47" as="geometry" />
        </mxCell>
        <mxCell id="rfrBUhaxzowPUc6iKHgh-60" value="" style="line;strokeWidth=1;fillColor=none;align=left;verticalAlign=middle;spacingTop=-1;spacingLeft=3;spacingRight=3;rotatable=0;labelPosition=right;points=[];portConstraint=eastwest;strokeColor=inherit;" vertex="1" parent="rfrBUhaxzowPUc6iKHgh-58">
          <mxGeometry y="73" width="252" height="8" as="geometry" />
        </mxCell>
        <mxCell id="rfrBUhaxzowPUc6iKHgh-61" value="+ displayRoute(): void&#xa;+ getLength(): int&#xa;+ createRoute(street: vector&lt;string&gt;): Route" style="text;strokeColor=none;fillColor=none;align=left;verticalAlign=top;spacingLeft=4;spacingRight=4;overflow=hidden;rotatable=0;points=[[0,0.5],[1,0.5]];portConstraint=eastwest;" vertex="1" parent="rfrBUhaxzowPUc6iKHgh-58">
          <mxGeometry y="81" width="252" height="65" as="geometry" />
        </mxCell>
        <mxCell id="rfrBUhaxzowPUc6iKHgh-62" value="Vehicle" style="swimlane;fontStyle=1;align=center;verticalAlign=top;childLayout=stackLayout;horizontal=1;startSize=26;horizontalStack=0;resizeParent=1;resizeParentMax=0;resizeLast=0;collapsible=1;marginBottom=0;" vertex="1" parent="1">
          <mxGeometry x="-1070" y="625" width="191" height="304" as="geometry" />
        </mxCell>
        <mxCell id="rfrBUhaxzowPUc6iKHgh-63" value="- vehicleID: int&#xa;- weight: int&#xa;- capacity: int&#xa;- fuel: int&#xa;- status: bool&#xa;- time: string" style="text;strokeColor=none;fillColor=none;align=left;verticalAlign=top;spacingLeft=4;spacingRight=4;overflow=hidden;rotatable=0;points=[[0,0.5],[1,0.5]];portConstraint=eastwest;" vertex="1" parent="rfrBUhaxzowPUc6iKHgh-62">
          <mxGeometry y="26" width="191" height="94" as="geometry" />
        </mxCell>
        <mxCell id="rfrBUhaxzowPUc6iKHgh-64" value="" style="line;strokeWidth=1;fillColor=none;align=left;verticalAlign=middle;spacingTop=-1;spacingLeft=3;spacingRight=3;rotatable=0;labelPosition=right;points=[];portConstraint=eastwest;strokeColor=inherit;" vertex="1" parent="rfrBUhaxzowPUc6iKHgh-62">
          <mxGeometry y="120" width="191" height="8" as="geometry" />
        </mxCell>
        <mxCell id="rfrBUhaxzowPUc6iKHgh-65" value="+ getWeight(): int&#xa;+ getCapacity(): int&#xa;+ getFuel(): int&#xa;+ getStatus(): bool&#xa;+ getTime(): string&#xa;+ setFuel(fuel: int): void&#xa;+ setStatus(status: bool): void&#xa;+ setTime(time: string): void&#xa;+ setCapacity(capacity: int): void&#xa;+ setWeight(weight: int): void&#xa;+ setVehicleID(vehicleID: int): void" style="text;strokeColor=none;fillColor=none;align=left;verticalAlign=top;spacingLeft=4;spacingRight=4;overflow=hidden;rotatable=0;points=[[0,0.5],[1,0.5]];portConstraint=eastwest;" vertex="1" parent="rfrBUhaxzowPUc6iKHgh-62">
          <mxGeometry y="128" width="191" height="176" as="geometry" />
        </mxCell>
        <mxCell id="rfrBUhaxzowPUc6iKHgh-66" value="MCPs" style="swimlane;fontStyle=1;align=center;verticalAlign=top;childLayout=stackLayout;horizontal=1;startSize=26;horizontalStack=0;resizeParent=1;resizeParentMax=0;resizeLast=0;collapsible=1;marginBottom=0;" vertex="1" parent="1">
          <mxGeometry x="-1230" y="-100" width="275" height="248" as="geometry" />
        </mxCell>
        <mxCell id="rfrBUhaxzowPUc6iKHgh-67" value="- mcpID: int&#xa;- address: string&#xa;- maxCapacity: int&#xa;- currentCapacity: int" style="text;strokeColor=none;fillColor=none;align=left;verticalAlign=top;spacingLeft=4;spacingRight=4;overflow=hidden;rotatable=0;points=[[0,0.5],[1,0.5]];portConstraint=eastwest;fontStyle=0" vertex="1" parent="rfrBUhaxzowPUc6iKHgh-66">
          <mxGeometry y="26" width="275" height="64" as="geometry" />
        </mxCell>
        <mxCell id="rfrBUhaxzowPUc6iKHgh-68" value="" style="line;strokeWidth=1;fillColor=none;align=left;verticalAlign=middle;spacingTop=-1;spacingLeft=3;spacingRight=3;rotatable=0;labelPosition=right;points=[];portConstraint=eastwest;strokeColor=inherit;" vertex="1" parent="rfrBUhaxzowPUc6iKHgh-66">
          <mxGeometry y="90" width="275" height="8" as="geometry" />
        </mxCell>
        <mxCell id="rfrBUhaxzowPUc6iKHgh-69" value="+ getMcpID(): int&#xa;+ getStatus(): int&#xa;+ getMaxCapacity(): int&#xa;+ getAddress(): string&#xa;+ getCurrentCapacity(): int&#xa;+ setStatus(status: int): void&#xa;+ setMcpID(mcpID: int):void&#xa;+ setAddress(address:string):void&#xa;+ setMaxCapacity(maxCapacity:int):void&#xa;+ setCurrentCapacity(currentCapacity: int): void" style="text;strokeColor=none;fillColor=none;align=left;verticalAlign=top;spacingLeft=4;spacingRight=4;overflow=hidden;rotatable=0;points=[[0,0.5],[1,0.5]];portConstraint=eastwest;" vertex="1" parent="rfrBUhaxzowPUc6iKHgh-66">
          <mxGeometry y="98" width="275" height="150" as="geometry" />
        </mxCell>
        <mxCell id="rfrBUhaxzowPUc6iKHgh-70" value="MCPsController" style="swimlane;fontStyle=1;align=center;verticalAlign=top;childLayout=stackLayout;horizontal=1;startSize=26;horizontalStack=0;resizeParent=1;resizeParentMax=0;resizeLast=0;collapsible=1;marginBottom=0;" vertex="1" parent="1">
          <mxGeometry x="-910" y="-28" width="450" height="148" as="geometry" />
        </mxCell>
        <mxCell id="rfrBUhaxzowPUc6iKHgh-71" value="- mcps: vector&lt;MCPs&gt;&#xa;" style="text;strokeColor=none;fillColor=none;align=left;verticalAlign=top;spacingLeft=4;spacingRight=4;overflow=hidden;rotatable=0;points=[[0,0.5],[1,0.5]];portConstraint=eastwest;" vertex="1" parent="rfrBUhaxzowPUc6iKHgh-70">
          <mxGeometry y="26" width="450" height="24" as="geometry" />
        </mxCell>
        <mxCell id="rfrBUhaxzowPUc6iKHgh-72" value="" style="line;strokeWidth=1;fillColor=none;align=left;verticalAlign=middle;spacingTop=-1;spacingLeft=3;spacingRight=3;rotatable=0;labelPosition=right;points=[];portConstraint=eastwest;strokeColor=inherit;" vertex="1" parent="rfrBUhaxzowPUc6iKHgh-70">
          <mxGeometry y="50" width="450" height="8" as="geometry" />
        </mxCell>
        <mxCell id="rfrBUhaxzowPUc6iKHgh-73" value="+ addMCP(ID: int, address: string, capacity: int, status: int): void&#xa;+ removeMCP(ID: int): bool&#xa;+ getMCPList(): vector&lt;MCPs&gt;&#xa;+ getMCPInfo(ID: int): bool" style="text;strokeColor=none;fillColor=none;align=left;verticalAlign=top;spacingLeft=4;spacingRight=4;overflow=hidden;rotatable=0;points=[[0,0.5],[1,0.5]];portConstraint=eastwest;" vertex="1" parent="rfrBUhaxzowPUc6iKHgh-70">
          <mxGeometry y="58" width="450" height="90" as="geometry" />
        </mxCell>
        <mxCell id="rfrBUhaxzowPUc6iKHgh-74" value="Map" style="swimlane;fontStyle=1;align=center;verticalAlign=top;childLayout=stackLayout;horizontal=1;startSize=26;horizontalStack=0;resizeParent=1;resizeParentMax=0;resizeLast=0;collapsible=1;marginBottom=0;swimlaneLine=1;sketch=0;shadow=0;rounded=0;" vertex="1" parent="1">
          <mxGeometry x="-140" y="-160" width="290" height="261" as="geometry">
            <mxRectangle x="-210" y="-60" width="60" height="30" as="alternateBounds" />
          </mxGeometry>
        </mxCell>
        <mxCell id="rfrBUhaxzowPUc6iKHgh-75" value="- street: vector&lt;string&gt;&#xa;- mcps: vector&lt;MCPs&gt;&#xa;- routeList: vector&lt;route&gt;&#xa;- routeController: RouteController&#xa;- mcpsController: MCPsController" style="text;strokeColor=none;fillColor=none;align=left;verticalAlign=top;spacingLeft=4;spacingRight=4;overflow=hidden;rotatable=0;points=[[0,0.5],[1,0.5]];portConstraint=eastwest;" vertex="1" parent="rfrBUhaxzowPUc6iKHgh-74">
          <mxGeometry y="26" width="290" height="81" as="geometry" />
        </mxCell>
        <mxCell id="rfrBUhaxzowPUc6iKHgh-76" value="" style="line;strokeWidth=1;fillColor=none;align=left;verticalAlign=middle;spacingTop=-1;spacingLeft=3;spacingRight=3;rotatable=0;labelPosition=right;points=[];portConstraint=eastwest;strokeColor=inherit;" vertex="1" parent="rfrBUhaxzowPUc6iKHgh-74">
          <mxGeometry y="107" width="290" height="8" as="geometry" />
        </mxCell>
        <mxCell id="rfrBUhaxzowPUc6iKHgh-77" value="+ displayFullMap(): void&#xa;+ displaySelectedMCPs(mpcs: MPCs): void&#xa;+ displaySelectedStreet(street: vector&lt;string&gt;): void&#xa;+ displayRouteInfo(route: Route): void&#xa;+ getSelectedMCPs(): vector&lt;MCPs&gt;&#xa;+ getSelectedStreet(): vector&lt;string&gt;&#xa;+ calculateDistance(street: vector&lt;string&gt;): int&#xa;+ findBestRoute(street: vector&lt;string&gt;,&#xa;mcps: vector&lt;MCPs&gt;, vehicle: Vehicle): Route" style="text;strokeColor=none;fillColor=none;align=left;verticalAlign=top;spacingLeft=4;spacingRight=4;overflow=hidden;rotatable=0;points=[[0,0.5],[1,0.5]];portConstraint=eastwest;" vertex="1" parent="rfrBUhaxzowPUc6iKHgh-74">
          <mxGeometry y="115" width="290" height="146" as="geometry" />
        </mxCell>
        <mxCell id="rfrBUhaxzowPUc6iKHgh-79" value="VehicleController" style="swimlane;fontStyle=1;align=center;verticalAlign=top;childLayout=stackLayout;horizontal=1;startSize=26;horizontalStack=0;resizeParent=1;resizeParentMax=0;resizeLast=0;collapsible=1;marginBottom=0;" vertex="1" parent="1">
          <mxGeometry x="-820" y="650" width="481.75" height="155" as="geometry" />
        </mxCell>
        <mxCell id="rfrBUhaxzowPUc6iKHgh-80" value="- vehicle: vector&lt;Vehicle&gt;" style="text;strokeColor=none;fillColor=none;align=left;verticalAlign=top;spacingLeft=4;spacingRight=4;overflow=hidden;rotatable=0;points=[[0,0.5],[1,0.5]];portConstraint=eastwest;fontStyle=0" vertex="1" parent="rfrBUhaxzowPUc6iKHgh-79">
          <mxGeometry y="26" width="481.75" height="34" as="geometry" />
        </mxCell>
        <mxCell id="rfrBUhaxzowPUc6iKHgh-81" value="" style="line;strokeWidth=1;fillColor=none;align=left;verticalAlign=middle;spacingTop=-1;spacingLeft=3;spacingRight=3;rotatable=0;labelPosition=right;points=[];portConstraint=eastwest;strokeColor=inherit;" vertex="1" parent="rfrBUhaxzowPUc6iKHgh-79">
          <mxGeometry y="60" width="481.75" height="8" as="geometry" />
        </mxCell>
        <mxCell id="rfrBUhaxzowPUc6iKHgh-82" value="+ addVehicle(ID: int, weight: int, capacity: int, fuel: int, status: bool, time: string): void&#xa;+ removeVehicle(ID: int): bool&#xa;+ getVehicleList(): vector&lt;Vehicle&gt;&#xa;+ getVehicleInfo(ID: int): bool&#xa;+ updateVehicleInfo(ID: int, fuel: int, status: bool, time: string): bool" style="text;strokeColor=none;fillColor=none;align=left;verticalAlign=top;spacingLeft=4;spacingRight=4;overflow=hidden;rotatable=0;points=[[0,0.5],[1,0.5]];portConstraint=eastwest;" vertex="1" parent="rfrBUhaxzowPUc6iKHgh-79">
          <mxGeometry y="68" width="481.75" height="87" as="geometry" />
        </mxCell>
        <mxCell id="rfrBUhaxzowPUc6iKHgh-86" style="edgeStyle=orthogonalEdgeStyle;rounded=0;orthogonalLoop=1;jettySize=auto;html=1;entryX=0.5;entryY=0;entryDx=0;entryDy=0;strokeWidth=1;endArrow=diamond;endFill=0;endSize=17;exitX=0.263;exitY=1.004;exitDx=0;exitDy=0;exitPerimeter=0;" edge="1" parent="1" source="rfrBUhaxzowPUc6iKHgh-34" target="rfrBUhaxzowPUc6iKHgh-17">
          <mxGeometry relative="1" as="geometry">
            <mxPoint x="1430" y="70" as="sourcePoint" />
          </mxGeometry>
        </mxCell>
        <mxCell id="rfrBUhaxzowPUc6iKHgh-98" value="WorkerController" style="swimlane;fontStyle=1;align=center;verticalAlign=top;childLayout=stackLayout;horizontal=1;startSize=26;horizontalStack=0;resizeParent=1;resizeParentMax=0;resizeLast=0;collapsible=1;marginBottom=0;" vertex="1" parent="1">
          <mxGeometry x="850" y="186" width="379" height="157" as="geometry" />
        </mxCell>
        <mxCell id="rfrBUhaxzowPUc6iKHgh-99" value="- worker: vector&lt;Worker&gt;" style="text;strokeColor=none;fillColor=none;align=left;verticalAlign=top;spacingLeft=4;spacingRight=4;overflow=hidden;rotatable=0;points=[[0,0.5],[1,0.5]];portConstraint=eastwest;fontStyle=0" vertex="1" parent="rfrBUhaxzowPUc6iKHgh-98">
          <mxGeometry y="26" width="379" height="24" as="geometry" />
        </mxCell>
        <mxCell id="rfrBUhaxzowPUc6iKHgh-100" value="" style="line;strokeWidth=1;fillColor=none;align=left;verticalAlign=middle;spacingTop=-1;spacingLeft=3;spacingRight=3;rotatable=0;labelPosition=right;points=[];portConstraint=eastwest;strokeColor=inherit;" vertex="1" parent="rfrBUhaxzowPUc6iKHgh-98">
          <mxGeometry y="50" width="379" height="8" as="geometry" />
        </mxCell>
        <mxCell id="rfrBUhaxzowPUc6iKHgh-101" value="+ assignRouteForCollectors(vector&lt;Worker&gt;, route: Route,Â &#xa;vehicle: Vehicle, date: string, hour: string, week: string): bool&#xa;+ assignAreaForJanitors(vector&lt;Worker&gt;,&#xa;street: vector&lt;string&gt;,date: string, hour: string, week: string): bool&#xa;+ updateRoute(route: Route): void" style="text;strokeColor=none;fillColor=none;align=left;verticalAlign=top;spacingLeft=4;spacingRight=4;overflow=hidden;rotatable=0;points=[[0,0.5],[1,0.5]];portConstraint=eastwest;" vertex="1" parent="rfrBUhaxzowPUc6iKHgh-98">
          <mxGeometry y="58" width="379" height="99" as="geometry" />
        </mxCell>
        <mxCell id="rfrBUhaxzowPUc6iKHgh-103" value="RouteController" style="swimlane;fontStyle=1;align=center;verticalAlign=top;childLayout=stackLayout;horizontal=1;startSize=26;horizontalStack=0;resizeParent=1;resizeParentMax=0;resizeLast=0;collapsible=1;marginBottom=0;" vertex="1" parent="1">
          <mxGeometry x="-850" y="300" width="331" height="191" as="geometry" />
        </mxCell>
        <mxCell id="rfrBUhaxzowPUc6iKHgh-104" value="- map: Map&#xa;- route: vector&lt;Route&gt;&#xa;- adminManageController:Â AdminManageController" style="text;strokeColor=none;fillColor=none;align=left;verticalAlign=top;spacingLeft=4;spacingRight=4;overflow=hidden;rotatable=0;points=[[0,0.5],[1,0.5]];portConstraint=eastwest;fontStyle=0" vertex="1" parent="rfrBUhaxzowPUc6iKHgh-103">
          <mxGeometry y="26" width="331" height="55" as="geometry" />
        </mxCell>
        <mxCell id="rfrBUhaxzowPUc6iKHgh-105" value="" style="line;strokeWidth=1;fillColor=none;align=left;verticalAlign=middle;spacingTop=-1;spacingLeft=3;spacingRight=3;rotatable=0;labelPosition=right;points=[];portConstraint=eastwest;strokeColor=inherit;" vertex="1" parent="rfrBUhaxzowPUc6iKHgh-103">
          <mxGeometry y="81" width="331" height="8" as="geometry" />
        </mxCell>
        <mxCell id="rfrBUhaxzowPUc6iKHgh-106" value="+ updateRoute(): void&#xa;+ requestCreateRoute(street: vector&lt;string&gt;): Route&#xa;+ storeRoute(route: Route): void&#xa;+ getRoute(): Route&#xa;+ requestDisplayRoute(): void&#xa;+ isOverlap(route: Route, routeList: vector&lt;Route&gt;): bool" style="text;strokeColor=none;fillColor=none;align=left;verticalAlign=top;spacingLeft=4;spacingRight=4;overflow=hidden;rotatable=0;points=[[0,0.5],[1,0.5]];portConstraint=eastwest;" vertex="1" parent="rfrBUhaxzowPUc6iKHgh-103">
          <mxGeometry y="89" width="331" height="102" as="geometry" />
        </mxCell>
        <mxCell id="rfrBUhaxzowPUc6iKHgh-108" style="edgeStyle=orthogonalEdgeStyle;rounded=0;orthogonalLoop=1;jettySize=auto;html=1;startArrow=none;startFill=0;endArrow=diamond;endFill=0;strokeWidth=1;endSize=17;entryX=-0.002;entryY=0.971;entryDx=0;entryDy=0;entryPerimeter=0;exitX=1.001;exitY=0.113;exitDx=0;exitDy=0;exitPerimeter=0;" edge="1" parent="1" source="rfrBUhaxzowPUc6iKHgh-69" target="rfrBUhaxzowPUc6iKHgh-71">
          <mxGeometry relative="1" as="geometry">
            <mxPoint x="-950" y="20" as="sourcePoint" />
            <mxPoint x="-930" y="30" as="targetPoint" />
            <Array as="points">
              <mxPoint x="-940" y="15" />
              <mxPoint x="-940" y="21" />
            </Array>
          </mxGeometry>
        </mxCell>
        <mxCell id="rfrBUhaxzowPUc6iKHgh-87" style="edgeStyle=orthogonalEdgeStyle;rounded=0;orthogonalLoop=1;jettySize=auto;html=1;strokeWidth=1;endArrow=diamond;endFill=0;endSize=17;jumpStyle=arc;entryX=-0.001;entryY=0.169;entryDx=0;entryDy=0;entryPerimeter=0;exitX=1.01;exitY=0.045;exitDx=0;exitDy=0;exitPerimeter=0;" edge="1" parent="1" source="rfrBUhaxzowPUc6iKHgh-65" target="rfrBUhaxzowPUc6iKHgh-82">
          <mxGeometry relative="1" as="geometry">
            <Array as="points">
              <mxPoint x="-850" y="761" />
              <mxPoint x="-850" y="733" />
            </Array>
            <mxPoint x="277.75" y="670" as="targetPoint" />
          </mxGeometry>
        </mxCell>
        <mxCell id="rfrBUhaxzowPUc6iKHgh-57" style="edgeStyle=orthogonalEdgeStyle;rounded=0;orthogonalLoop=1;jettySize=auto;html=1;exitX=0.004;exitY=1.061;exitDx=0;exitDy=0;strokeWidth=1;startArrow=diamond;startFill=0;endArrow=none;endFill=0;endSize=17;startSize=17;exitPerimeter=0;entryX=1.011;entryY=0.887;entryDx=0;entryDy=0;entryPerimeter=0;" edge="1" parent="1" source="rfrBUhaxzowPUc6iKHgh-104" target="rfrBUhaxzowPUc6iKHgh-59">
          <mxGeometry relative="1" as="geometry">
            <mxPoint x="-890" y="370" as="targetPoint" />
          </mxGeometry>
        </mxCell>
        <mxCell id="rfrBUhaxzowPUc6iKHgh-125" value="" style="endArrow=none;html=1;rounded=0;entryX=0.498;entryY=1.013;entryDx=0;entryDy=0;entryPerimeter=0;exitX=0.539;exitY=-0.008;exitDx=0;exitDy=0;exitPerimeter=0;edgeStyle=orthogonalEdgeStyle;" edge="1" parent="1" source="rfrBUhaxzowPUc6iKHgh-27" target="rfrBUhaxzowPUc6iKHgh-4">
          <mxGeometry width="50" height="50" relative="1" as="geometry">
            <mxPoint x="290" y="350" as="sourcePoint" />
            <mxPoint x="340" y="300" as="targetPoint" />
          </mxGeometry>
        </mxCell>
      </root>
    </mxGraphModel>
  </diagram>
</mxfile>
